<svg width="21" height="23" viewBox="0 0 21 23" fill="none" xmlns="http://www.w3.org/2000/svg">
<path fill-rule="evenodd" clip-rule="evenodd" d="M10.5005 0.489258C9.20367 0.489258 8.99985 1.82966 8.99985 1.82966H11.9914C11.9914 1.82966 11.7972 0.489258 10.5005 0.489258ZM17.2019 7.49437L17.2197 7.55787V14.507L20.0923 18.2092V20.0681H0.447266V18.2037L3.4424 14.5015V7.56404L3.45711 7.50607C4.39824 3.79795 6.69736 1.89294 10.2599 1.89294C13.8182 1.89294 16.1619 3.79223 17.2019 7.49437ZM1.40471 18.5425V19.1107H19.1348V18.5371L16.2623 14.8348V7.69046C15.3276 4.43221 13.356 2.85039 10.2599 2.85039C7.16617 2.85039 5.24383 4.4283 4.39985 7.68425V14.8403L1.40471 18.5425ZM7.62812 20.5632H13.3728C13.3728 20.5632 12.8687 22.9568 10.5588 22.9568C8.24877 22.9568 7.62812 20.5632 7.62812 20.5632Z" fill="#FF5252"/>
</svg>
