<svg width="26" height="23" viewBox="0 0 26 23" fill="none" xmlns="http://www.w3.org/2000/svg">
<path fill-rule="evenodd" clip-rule="evenodd" d="M18.7213 8.21701L21.5374 11.1626C21.2383 5.74644 16.7517 1.4467 11.2607 1.4467C5.57632 1.4467 0.968189 6.05484 0.968189 11.7393C0.968189 17.4237 5.57632 22.0318 11.2607 22.0318C13.9975 22.0318 16.5638 20.9595 18.4765 19.0789L19.1477 19.7616C17.0577 21.8166 14.2512 22.9893 11.2607 22.9893C5.04754 22.9893 0.0107422 17.9525 0.0107422 11.7393C0.0107422 5.52605 5.04754 0.489258 11.2607 0.489258C17.2472 0.489258 22.1415 5.1651 22.4908 11.0638L24.8166 8.24327L25.5553 8.85239L22.0585 13.0931L18.0292 8.87864L18.7213 8.21701ZM15.8086 12.3888C15.8086 13.8739 14.7182 15.0281 13.294 15.0281V15.9855C15.2595 15.9855 16.7661 14.3909 16.7661 12.3888C16.7661 11.1171 15.7056 8.85641 13.5801 5.49914L13.1957 4.89203L12.7835 5.48058C12.6542 5.66518 12.5182 5.86131 12.3367 6.12424L12.2959 6.18339C12.1986 6.32449 11.9574 6.67425 11.8755 6.79274L11.7105 7.03096C11.32 7.59342 11.0188 8.01653 10.7435 8.38493L11.5104 8.95807C11.7937 8.57897 12.1007 8.14782 12.497 7.57699L12.6631 7.3372C12.7451 7.21863 12.9851 6.87048 13.083 6.72854L13.0841 6.72694L13.1247 6.66809L13.1548 6.62445C14.9228 9.48498 15.8086 11.4357 15.8086 12.3888ZM12.4576 14.6116C12.4576 16.5945 10.8501 18.202 8.86712 18.202C6.88419 18.202 5.2767 16.5945 5.2767 14.6116C5.2767 13.3399 6.33716 11.0792 8.46265 7.72195L8.86712 7.08306L9.2716 7.72195C11.3971 11.0792 12.4576 13.3399 12.4576 14.6116ZM8.86712 17.2446C10.3213 17.2446 11.5001 16.0658 11.5001 14.6116C11.5001 13.6622 10.6212 11.7231 8.86712 8.88095C7.11303 11.7231 6.23415 13.6622 6.23415 14.6116C6.23415 16.0658 7.41297 17.2446 8.86712 17.2446Z" fill="#FF5252"/>
</svg>
