<svg width="26" height="16" viewBox="0 0 26 16" fill="none" xmlns="http://www.w3.org/2000/svg">
<path fill-rule="evenodd" clip-rule="evenodd" d="M3.5455 0.46875H17.9389C19.595 0.46875 20.9375 1.91158 20.9375 3.69141V5.55667L25.1562 3.28125V13.8281L20.9375 11.6142V12.7148C20.9375 14.4947 19.595 15.9375 17.9389 15.9375H3.5455C1.8894 15.9375 0.546875 14.4947 0.546875 12.7148V3.69141C0.546875 1.91158 1.8894 0.46875 3.5455 0.46875ZM3.5455 1.75781C2.55184 1.75781 1.74632 2.62351 1.74632 3.69141V12.7148C1.74632 13.7827 2.55184 14.6484 3.5455 14.6484H17.9389C18.9325 14.6484 19.7381 13.7827 19.7381 12.7148V3.69141C19.7381 2.62351 18.9325 1.75781 17.9389 1.75781H3.5455Z" fill="#FF5252"/>
</svg>
