<svg width="30" height="18" viewBox="0 0 30 18" fill="none" xmlns="http://www.w3.org/2000/svg">
<path fill-rule="evenodd" clip-rule="evenodd" d="M29.3154 2.5271C29.3154 3.71486 28.3684 4.67773 27.2002 4.67773C26.032 4.67773 25.085 3.71486 25.085 2.5271C25.085 1.33934 26.032 0.376465 27.2002 0.376465C28.3684 0.376465 29.3154 1.33934 29.3154 2.5271ZM26.0251 2.5271C26.0251 3.18697 26.5512 3.7219 27.2002 3.7219C27.8492 3.7219 28.3753 3.18697 28.3753 2.5271C28.3753 1.86723 27.8492 1.3323 27.2002 1.3323C26.5512 1.3323 26.0251 1.86723 26.0251 2.5271Z" fill="#FF5252"/>
<path fill-rule="evenodd" clip-rule="evenodd" d="M21.7949 12.0852C21.7949 13.273 20.8479 14.2358 19.6797 14.2358C18.5115 14.2358 17.5645 13.273 17.5645 12.0852C17.5645 10.8974 18.5115 9.93457 19.6797 9.93457C20.8479 9.93457 21.7949 10.8974 21.7949 12.0852ZM18.5046 12.0852C18.5046 12.7451 19.0307 13.28 19.6797 13.28C20.3287 13.28 20.8548 12.7451 20.8548 12.0852C20.8548 11.4253 20.3287 10.8904 19.6797 10.8904C19.0307 10.8904 18.5046 11.4253 18.5046 12.0852Z" fill="#FF5252"/>
<path fill-rule="evenodd" clip-rule="evenodd" d="M11.9238 5.87231C11.9238 7.06008 10.9768 8.02295 9.80858 8.02295C8.64038 8.02295 7.69336 7.06008 7.69336 5.87231C7.69336 4.68455 8.64038 3.72168 9.80858 3.72168C10.9768 3.72168 11.9238 4.68455 11.9238 5.87231ZM8.63346 5.87231C8.63346 6.53218 9.15958 7.06711 9.80858 7.06711C10.4576 7.06711 10.9837 6.53218 10.9837 5.87231C10.9837 5.21245 10.4576 4.67752 9.80858 4.67752C9.15958 4.67752 8.63346 5.21245 8.63346 5.87231Z" fill="#FF5252"/>
<path fill-rule="evenodd" clip-rule="evenodd" d="M4.87303 15.4309C4.87303 16.6187 3.92601 17.5815 2.7578 17.5815C1.5896 17.5815 0.642578 16.6187 0.642578 15.4309C0.642578 14.2431 1.5896 13.2803 2.7578 13.2803C3.92601 13.2803 4.87303 14.2431 4.87303 15.4309ZM1.58268 15.4309C1.58268 16.0908 2.1088 16.6257 2.7578 16.6257C3.40681 16.6257 3.93293 16.0908 3.93293 15.4309C3.93293 14.771 3.40681 14.2361 2.7578 14.2361C2.1088 14.2361 1.58268 14.771 1.58268 15.4309Z" fill="#FF5252"/>
<path d="M25.9457 3.52881L20.1943 10.9713L20.9336 11.5618L26.6849 4.11935L25.9457 3.52881Z" fill="#FF5252"/>
<path d="M8.50799 6.40332L3.51465 13.8851L4.29256 14.4218L9.2859 6.94002L8.50799 6.40332Z" fill="#FF5252"/>
<path d="M11.2788 6.41504L18.6758 10.7126L18.2094 11.5425L10.8124 7.24494L11.2788 6.41504Z" fill="#FF5252"/>
</svg>
