<svg width="12" height="11" viewBox="0 0 12 11" fill="none" xmlns="http://www.w3.org/2000/svg">
<path fill-rule="evenodd" clip-rule="evenodd" d="M0.999634 5.22261C-0.721592 3.12138 0.688287 0.191406 2.97311 0.191406C4.03408 0.191406 4.99215 0.650985 5.83533 1.54368C6.43425 0.643122 7.49973 0.191406 8.96746 0.191406C10.3345 0.191406 11.1555 0.926284 11.3207 2.11551C11.4491 3.03946 11.163 4.19214 10.6217 5.15404C9.98059 6.2933 8.53758 7.97673 6.28008 10.2309L5.93889 10.5716L5.60065 10.228C3.61216 8.20793 2.07902 6.5403 0.999634 5.22261ZM2.97311 1.14885C1.4927 1.14885 0.533375 3.1425 1.74031 4.61589C2.73698 5.83261 4.13876 7.36506 5.94432 9.21119C7.94756 7.18747 9.23214 5.67102 9.78733 4.68447C10.2333 3.89201 10.469 2.94238 10.3724 2.24726C10.2722 1.52591 9.8509 1.14885 8.96746 1.14885C7.52967 1.14885 6.71309 1.61973 6.39574 2.56695L6.1058 3.43235L5.55866 2.70186C4.77178 1.65132 3.91683 1.14885 2.97311 1.14885Z" fill="#FF5252"/>
</svg>
