<svg width="19" height="22" viewBox="0 0 19 22" fill="currentColor" xmlns="http://www.w3.org/2000/svg">
<path fill-rule="evenodd" clip-rule="evenodd" d="M6.98148 0H12.5185C14.1651 0 15.5 1.42528 15.5 3.18346V7.16279H15.9773C17.6467 7.16279 19 8.57188 19 10.3101V18.8527C19 20.5909 17.6467 22 15.9773 22H3.02273C1.35332 22 0 20.5909 0 18.8527V10.3101C0 8.57188 1.35332 7.16279 3.02273 7.16279H4V3.18346C4 1.42528 5.33486 0 6.98148 0ZM14.6481 7.16279H4.85185V3.18346C4.85185 1.92762 5.80532 0.909561 6.98148 0.909561H12.5185C13.6947 0.909561 14.6481 1.92762 14.6481 3.18346V7.16279ZM4 8.06202H3.02273C1.83029 8.06202 0.863636 9.06851 0.863636 10.3101V18.8527C0.863636 20.0943 1.83029 21.1008 3.02273 21.1008H15.9773C17.1697 21.1008 18.1364 20.0943 18.1364 18.8527V10.3101C18.1364 9.06851 17.1697 8.06202 15.9773 8.06202H15.5V8.18605H4V8.06202ZM9.5 10.7442C10.8807 10.7442 12 11.9701 12 13.4823C12 14.4826 11.5055 15.3851 10.7324 15.8651C10.7317 15.9444 10.7353 16.0395 10.7475 16.3143C10.761 16.6201 10.7659 16.8093 10.7623 17.0181C10.7424 18.1834 10.4059 18.9302 9.5 18.9302C8.59493 18.9302 8.25543 18.1846 8.22694 17.0147C8.22186 16.8063 8.22523 16.6208 8.23621 16.3095C8.24592 16.0344 8.24864 15.9358 8.24671 15.8519C7.48494 15.3683 7 14.473 7 13.4823C7 11.9701 8.11929 10.7442 9.5 10.7442ZM9.05997 16.9904C9.07787 17.725 9.21103 18.0175 9.5 18.0175C9.78676 18.0175 9.91668 17.7292 9.92916 17.0009C9.9323 16.818 9.92777 16.6451 9.9151 16.3584C9.89899 15.9936 9.89659 15.9208 9.90034 15.7893C9.90987 15.4548 9.95477 15.265 10.2049 15.137C10.7869 14.8389 11.1667 14.1983 11.1667 13.4823C11.1667 12.4741 10.4205 11.6569 9.5 11.6569C8.57952 11.6569 7.83333 12.4741 7.83333 13.4823C7.83333 14.1895 8.20368 14.8235 8.7748 15.1264C9.01744 15.255 9.06489 15.4453 9.078 15.7731C9.08333 15.9063 9.08135 15.9927 9.06893 16.3447C9.0586 16.6373 9.05551 16.8073 9.05997 16.9904Z" />
</svg>
