<svg width="28" height="28" viewBox="0 0 28 28" fill="none" xmlns="http://www.w3.org/2000/svg">
<path d="M3.7168 3.62952L8.77339 9.24796L9.50053 8.59354L4.44393 2.9751L3.7168 3.62952Z" fill="#FF5252"/>
<path fill-rule="evenodd" clip-rule="evenodd" d="M10.5214 5.86715C10.5214 8.02826 8.76947 9.78019 6.60836 9.78019C4.44724 9.78019 2.69531 8.02826 2.69531 5.86715C2.69531 3.70603 4.44724 1.9541 6.60836 1.9541C8.76947 1.9541 10.5214 3.70603 10.5214 5.86715ZM3.67357 5.86715C3.67357 7.48798 4.98752 8.80193 6.60836 8.80193C8.22919 8.80193 9.54314 7.48798 9.54314 5.86715C9.54314 4.24631 8.22919 2.93236 6.60836 2.93236C4.98752 2.93236 3.67357 4.24631 3.67357 5.86715Z" fill="#FF5252"/>
<path fill-rule="evenodd" clip-rule="evenodd" d="M23.0476 11.8704C25.0533 9.86473 25.0533 6.61288 23.0476 4.60719C21.0419 2.60151 17.7901 2.60151 15.7844 4.60719L4.37078 16.0208C2.3651 18.0265 2.3651 21.2784 4.37078 23.284C6.37646 25.2897 9.62832 25.2897 11.634 23.284L23.0476 11.8704ZM16.4761 5.29893C18.0998 3.67528 20.7322 3.67528 22.3559 5.29893C23.9795 6.92258 23.9795 9.55503 22.3559 11.1787L10.9423 22.5923C9.31862 24.2159 6.68616 24.2159 5.06252 22.5923C3.43887 20.9687 3.43887 18.3362 5.06252 16.7126L16.4761 5.29893Z" fill="#FF5252"/>
<path fill-rule="evenodd" clip-rule="evenodd" d="M15.3737 15.8478L11.915 12.3892L6.38116 17.923C5.42607 18.8781 5.42607 20.4266 6.38116 21.3817C7.33625 22.3368 8.88475 22.3368 9.83983 21.3817L15.3737 15.8478ZM7.07289 18.6148L11.915 13.7726L13.9902 15.8478L9.1481 20.69C8.57505 21.263 7.64595 21.263 7.07289 20.69C6.49984 20.1169 6.49984 19.1878 7.07289 18.6148Z" fill="#FF5252"/>
</svg>
