<svg width="23" height="23" viewBox="0 0 23 23" fill="none" xmlns="http://www.w3.org/2000/svg">
<path fill-rule="evenodd" clip-rule="evenodd" d="M0.953125 22.0469V6.59099H4.37533V0.953125H22.0469V18.3169C22.0469 20.7489 20.979 22.0469 18.9098 22.0469H0.953125ZM21.3438 1.65625H5.08261V16.9265H4.3667V7.29412H1.65625V21.3438H18.9188C20.5577 21.3438 21.3438 20.3895 21.3438 18.3169V1.65625Z" fill="#FF5252"/>
<path d="M8.31396 12.1812C8.13203 12.1812 7.98438 12.0335 7.98438 11.8516C7.98438 8.94392 10.3502 6.57812 13.2578 6.57812C14.6665 6.57812 15.9911 7.12689 16.9865 8.12291C17.1153 8.25178 17.1153 8.46041 16.9865 8.58895C16.8576 8.71782 16.6493 8.71782 16.5204 8.58895C15.6493 7.71719 14.4905 7.2373 13.2578 7.2373C10.7134 7.2373 8.64355 9.30713 8.64355 11.8516C8.64355 12.0335 8.4959 12.1812 8.31396 12.1812Z" fill="#FF5252"/>
<path d="M17.0476 9.21484H15.2358C15.0536 9.21484 14.9062 9.06719 14.9062 8.88525C14.9062 8.70332 15.0536 8.55566 15.2358 8.55566H16.8838V6.90771C16.8838 6.72578 17.0311 6.57812 17.2134 6.57812C17.3956 6.57812 17.543 6.72578 17.543 6.90771V8.71947C17.543 8.9927 17.3208 9.21484 17.0476 9.21484Z" fill="#FF5252"/>
<path d="M13.2579 17.125C11.8493 17.125 10.525 16.5766 9.52927 15.5802C9.4004 15.4513 9.4004 15.243 9.52927 15.1142C9.65814 14.9853 9.86644 14.9853 9.99531 15.1142C10.8667 15.9859 12.0253 16.4658 13.2579 16.4658C15.8024 16.4658 17.8722 14.396 17.8722 11.8516C17.8722 11.6696 18.0195 11.522 18.2018 11.522C18.384 11.522 18.5314 11.6696 18.5314 11.8516C18.5314 14.7592 16.1656 17.125 13.2579 17.125Z" fill="#FF5252"/>
<path d="M9.30225 17.125C9.12031 17.125 8.97266 16.9777 8.97266 16.7954V14.9837C8.97266 14.7104 9.1948 14.4883 9.46803 14.4883H11.2798C11.4617 14.4883 11.6094 14.6356 11.6094 14.8179C11.6094 15.0001 11.4617 15.1475 11.2798 15.1475H9.63184V16.7954C9.63184 16.9777 9.48418 17.125 9.30225 17.125Z" fill="#FF5252"/>
</svg>
