<svg width="16" height="25" viewBox="0 0 16 25" fill="currentColor" xmlns="http://www.w3.org/2000/svg">
<path fill-rule="evenodd" clip-rule="evenodd" d="M13.8378 0H2.16216C0.968033 0 0 0.948549 0 2.11864V22.8814C0 24.0515 0.968033 25 2.16216 25H13.8378C15.032 25 16 24.0515 16 22.8814V2.11864C16 0.948549 15.032 0 13.8378 0ZM0.864865 2.11864C0.864865 1.41659 1.44568 0.847458 2.16216 0.847458H13.8378C14.5543 0.847458 15.1351 1.41659 15.1351 2.11864V22.8814C15.1351 23.5834 14.5543 24.1525 13.8378 24.1525H2.16216C1.44568 24.1525 0.864865 23.5834 0.864865 22.8814V2.11864ZM12.3011 1.5H3.69892C2.51122 1.5 1.54839 2.44122 1.54839 3.60227V17.8977C1.54839 19.0588 2.51122 20 3.69892 20H12.3011C13.4888 20 14.4516 19.0588 14.4516 17.8977V3.60227C14.4516 2.44122 13.4888 1.5 12.3011 1.5ZM2.4086 3.60227C2.4086 2.90564 2.9863 2.34091 3.69892 2.34091H12.3011C13.0137 2.34091 13.5914 2.90564 13.5914 3.60227V17.8977C13.5914 18.5944 13.0137 19.1591 12.3011 19.1591H3.69892C2.9863 19.1591 2.4086 18.5944 2.4086 17.8977V3.60227ZM8 24C8.99767 24 9.80645 23.2165 9.80645 22.25C9.80645 21.2835 8.99767 20.5 8 20.5C7.00232 20.5 6.19355 21.2835 6.19355 22.25C6.19355 23.2165 7.00232 24 8 24ZM8 23.125C7.50116 23.125 7.09677 22.7332 7.09677 22.25C7.09677 21.7668 7.50116 21.375 8 21.375C8.49884 21.375 8.90322 21.7668 8.90322 22.25C8.90322 22.7332 8.49884 23.125 8 23.125Z"/>
</svg>
