<svg width="89" height="27" viewBox="0 0 89 27" fill="none" xmlns="http://www.w3.org/2000/svg">
<rect x="1" y="1.1167" width="87" height="24.7449" rx="12.3724" stroke="white"/>
<path d="M17.0706 10.1454C17.0706 10.1454 12.0725 7.32813 11.779 7.16261C11.4849 6.99709 11.1924 7.0975 11.1924 7.44344V13.4578V19.5944C11.1924 19.8534 11.4014 19.9657 11.6569 19.822C11.9118 19.6784 17.0706 16.7701 17.0706 16.7701C17.0706 16.7701 17.7714 16.3753 18.1218 16.1779C18.6857 15.8602 19.8136 15.2248 19.8136 15.2248C19.8136 15.2248 22.1409 13.9126 22.4506 13.7386C22.7597 13.5642 22.7299 13.3251 22.4691 13.1874C22.2078 13.0502 19.8136 11.6913 19.8136 11.6913L17.0706 10.1454Z" fill="url(#paint0_linear)"/>
<path d="M17.9932 13.4375L11.421 7.10034C11.2677 7.13658 11.1758 7.25326 11.1758 7.44963V13.4375V19.575C11.1758 19.7416 11.2418 19.8407 11.3229 19.8744L17.9932 13.4375Z" fill="url(#paint1_linear)"/>
<mask id="mask0" mask-type="alpha" maskUnits="userSpaceOnUse" x="11" y="13" width="9" height="7">
<path fill-rule="evenodd" clip-rule="evenodd" d="M11.5935 19.8391L15.3922 17.7161C16.3277 17.1887 17.0701 16.7702 17.0701 16.7702L19.8325 15.2564L17.9934 13.4382L11.3232 19.876C11.3976 19.9003 11.5286 19.887 11.6309 19.8357" fill="white"/>
</mask>
<g mask="url(#mask0)">
<path d="M17.0613 10.1442C17.0517 10.1667 12.0556 7.34422 11.7643 7.20016C11.4682 7.01257 11.1758 7.11316 11.1758 7.44965V13.4874C11.1758 13.4851 11.1758 19.3731 11.1758 19.6249C11.1758 19.8925 11.3847 20.005 11.6172 19.8744C11.8949 19.7172 17.0517 16.8036 17.0613 16.7807L19.8079 15.2338C19.7936 15.2554 22.12 13.9408 22.4073 13.7868C22.7386 13.5917 22.7088 13.3522 22.4563 13.2379C22.1869 13.0768 19.7936 11.7154 19.8079 11.691L17.0613 10.1442Z" fill="url(#paint2_linear)"/>
</g>
<path d="M11.7699 7.15771C11.6434 7.08877 11.5177 7.06905 11.416 7.09692L17.9936 13.4433L19.8134 11.6913L17.0704 10.1454C17.0704 10.1454 14.485 8.68811 12.924 7.80816L11.7699 7.15771Z" fill="url(#paint3_linear)"/>
<path fill-rule="evenodd" clip-rule="evenodd" d="M57.1923 19.5952L57.7342 19.0759C57.7866 19.0227 57.7131 19.0616 57.7131 19.0616C57.3467 19.2454 56.9475 19.4237 56.4095 19.4237C55.3327 19.4237 54.3582 18.5729 54.0758 17.11L54.9482 17.0412L57.612 15.9482L57.6092 15.939C57.5273 15.6723 57.3778 15.1852 56.8182 14.8093C56.4777 14.5907 56.059 14.4871 55.6513 14.4871C54.4848 14.4871 53.0547 15.3621 53.0547 17.1462C53.0547 18.0079 53.4063 18.9968 54.2105 19.5721C54.7894 19.9973 55.3568 20.0212 55.7188 20.0212C56.059 20.0212 56.4418 19.9775 56.8182 19.8039C56.9011 19.7655 56.9841 19.7166 57.0673 19.6675C57.1089 19.6431 57.1506 19.6185 57.1923 19.5952ZM56.4316 15.8302C56.4316 15.9916 56.3204 16.0609 56.1066 16.1412L54.0674 17.0565C54.0635 16.9852 54.0583 16.9139 54.0532 16.8431C54.0433 16.7073 54.0335 16.5734 54.0335 16.4451C54.0335 15.1934 54.8737 14.8329 55.3212 14.8329C55.9254 14.8329 56.4316 15.3675 56.4316 15.8302Z" fill="white"/>
<path d="M52.1748 19.0134C52.1748 19.4594 52.2531 19.5288 52.6242 19.5638C52.8177 19.5869 53.0105 19.5971 53.2012 19.6203L52.7835 19.873H50.7932C51.0542 19.5288 51.0991 19.4944 51.0991 19.2651V19.009L51.0947 12.1839H50.2158L51.0619 11.7695H52.6771C52.327 11.9757 52.2223 12.1012 52.1774 12.5029L52.1748 19.0134Z" fill="white"/>
<path fill-rule="evenodd" clip-rule="evenodd" d="M49.0873 15.0504C49.3463 15.2671 49.8866 15.7269 49.8866 16.599C49.8866 17.449 49.4158 17.8496 48.941 18.2289L48.9207 18.2496C48.78 18.3933 48.6249 18.5516 48.6249 18.7904C48.6249 19.0397 48.7889 19.177 48.911 19.2791L48.9179 19.2849L49.3252 19.605C49.8204 20.0305 50.2718 20.4206 50.2718 21.2131C50.2718 22.2926 49.2454 23.3813 47.3057 23.3813C45.6717 23.3813 44.8818 22.5892 44.8818 21.7399C44.8818 21.3267 45.084 20.7413 45.7509 20.3403C46.4407 19.9111 47.3719 19.8488 47.8838 19.8145L47.9041 19.8131L47.8805 19.7822C47.7283 19.5831 47.565 19.3694 47.565 19.0312C47.565 18.8571 47.611 18.746 47.6604 18.6266L47.6779 18.584L47.67 18.5847L47.67 18.5847C47.5493 18.5964 47.4279 18.6081 47.3174 18.6081C46.1215 18.6081 45.4455 17.7 45.4455 16.8051C45.4455 16.2773 45.6821 15.6916 46.1679 15.2671C46.8108 14.7284 47.5773 14.6355 48.1865 14.6355H50.5101L49.7877 15.0504H49.0873ZM48.294 20.1326C48.2007 20.1202 48.1448 20.1202 48.0323 20.1202C47.9292 20.1202 47.3152 20.143 46.8395 20.3072C46.5879 20.4017 45.8607 20.6811 45.8607 21.5111C45.8607 22.3393 46.6458 22.9366 47.8605 22.9366C48.9519 22.9366 49.5313 22.3989 49.5313 21.6749C49.5313 21.079 49.1564 20.7646 48.294 20.1326ZM48.895 17.086C48.895 17.2931 48.8724 17.658 48.6129 17.9221C48.4352 18.1032 48.1325 18.2425 47.851 18.2425C46.8865 18.2425 46.448 16.9717 46.448 16.2054C46.448 15.9081 46.5049 15.5988 46.6948 15.3605C46.8738 15.1302 47.1892 14.9814 47.4804 14.9814C48.4136 14.9814 48.895 16.2631 48.895 17.086Z" fill="white"/>
<path fill-rule="evenodd" clip-rule="evenodd" d="M39.3018 17.2954C39.3018 18.5906 40.2628 20.0212 42.059 20.0212C43.9017 20.0212 44.93 18.578 44.93 17.2139C44.93 15.8172 43.8896 14.4871 42.2284 14.4871C40.5099 14.4871 39.3018 15.782 39.3018 17.2954ZM43.8044 17.8004C43.8044 18.2517 43.7378 18.7146 43.4637 19.0856C43.2026 19.4558 42.75 19.6753 42.3065 19.6753C40.9322 19.6753 40.3785 17.7866 40.3785 16.6416C40.3785 16.1415 40.4574 15.6318 40.9003 15.2262C41.1718 14.9823 41.5484 14.8329 41.9224 14.8329C43.3286 14.8329 43.8044 16.7796 43.8044 17.8004Z" fill="white"/>
<path fill-rule="evenodd" clip-rule="evenodd" d="M33.2822 17.2954C33.2822 18.5906 34.242 20.0212 36.0392 20.0212C37.883 20.0212 38.9105 18.578 38.9105 17.2139C38.9105 15.8172 37.8707 14.4871 36.2097 14.4871C34.4912 14.4871 33.2822 15.782 33.2822 17.2954ZM37.7848 17.8004C37.7848 18.2517 37.7169 18.7146 37.4446 19.0856C37.1828 19.4558 36.7306 19.6753 36.2879 19.6753C34.9153 19.6753 34.3589 17.7866 34.3589 16.6416C34.3589 16.1415 34.4376 15.6318 34.8813 15.2262C35.1536 14.9823 35.5264 14.8329 35.9019 14.8329C37.3075 14.8329 37.7848 16.7796 37.7848 17.8004Z" fill="white"/>
<path d="M32.5372 19.6794L31.0158 20.0334C30.3994 20.1321 29.8459 20.2189 29.2597 20.2189C26.3252 20.2189 25.207 18.0242 25.207 16.3064C25.207 14.2087 26.7913 12.2637 29.5045 12.2637C30.0786 12.2637 30.6308 12.3494 31.1339 12.4889C31.9312 12.7164 32.3042 12.997 32.5372 13.1613L31.6534 14.0142L31.2808 14.099L31.5465 13.6688C31.1867 13.3117 30.5252 12.6525 29.2698 12.6525C27.5914 12.6525 26.3252 13.949 26.3252 15.8417C26.3252 17.8745 27.7709 19.7867 30.0897 19.7867C30.771 19.7867 31.1218 19.6476 31.4402 19.5178V17.7751L29.8338 17.8629L30.6852 17.3981H32.9398L32.664 17.6678C32.5897 17.732 32.5796 17.7539 32.5587 17.84C32.5476 17.9384 32.5372 18.2514 32.5372 18.3614V19.6794Z" fill="white"/>
<path fill-rule="evenodd" clip-rule="evenodd" d="M61.0171 22.047V19.1288C61.4465 19.7403 62.1162 20.1304 62.8638 20.1304C64.284 20.1304 65.2406 19.0174 65.2406 17.3031C65.2406 15.5773 64.284 14.4871 62.8638 14.4871C62.0719 14.4871 61.3902 14.9203 61.0171 15.4669V14.6212H60.4443V22.047H61.0171ZM62.7882 15.0306C63.9808 15.0306 64.6533 16.0332 64.6533 17.3476C64.6533 18.6641 63.9808 19.6753 62.7882 19.6753C62.0477 19.6753 61.3394 19.0608 61.0316 18.5427V16.1406C61.3394 15.6235 62.0477 15.0306 62.7882 15.0306Z" fill="white"/>
<path d="M66.0244 12.5601H66.6117V20.0212H66.0244V12.5601Z" fill="white"/>
<path d="M72.9966 21.5333C73.119 21.5886 73.3281 21.6226 73.4606 21.6226C73.8109 21.6226 74.0549 21.4776 74.274 20.9654L74.6917 20.0074L72.4355 14.5859H73.0744L75.0098 19.284L76.9265 14.5859H77.5744L74.8226 21.1451C74.5371 21.8209 74.0878 22.1459 73.4707 22.1459C73.2855 22.1459 73.0412 22.1126 72.8983 22.0681L72.9966 21.5333Z" fill="white"/>
<path fill-rule="evenodd" clip-rule="evenodd" d="M71.2912 19.5232C71.3125 19.6611 71.3415 19.8263 71.38 20.0138H72.0437C71.9921 19.8393 71.9533 19.659 71.929 19.4784C71.9054 19.2982 71.8963 19.1131 71.8963 18.9216V16.255C71.8963 15.6841 71.7043 15.2474 71.3216 14.9453C70.9386 14.64 70.4304 14.4871 69.8024 14.4871C69.1724 14.4871 68.6604 14.6424 68.2697 14.9514C67.8772 15.2607 67.6926 15.6189 67.7139 16.0273L67.726 16.0563H68.3156C68.3156 15.7534 68.4495 15.5021 68.7154 15.2993C68.9837 15.1006 69.336 14.9985 69.7703 14.9985C70.2455 14.9985 70.6119 15.1102 70.8731 15.3311C71.1333 15.5516 71.2635 15.8559 71.2635 16.2427V16.9143H69.9201C69.2 16.9143 68.6183 17.0645 68.1681 17.3667C67.7179 17.6675 67.4922 18.0608 67.4922 18.5453C67.4922 19.0305 67.6481 19.4139 67.9579 19.6969C68.2687 19.9803 68.7043 20.12 69.2655 20.12C69.7315 20.12 70.0713 20.0251 70.429 19.8315C70.7864 19.6392 71.0661 19.3951 71.2635 19.1018C71.2635 19.2449 71.2737 19.3856 71.2912 19.5232ZM70.5341 19.2947C70.175 19.5147 69.8237 19.6259 69.3348 19.6259C68.9599 19.6259 68.6659 19.5318 68.4508 19.342C68.2363 19.1543 68.1284 18.9065 68.1284 18.5966C68.1284 18.2682 68.2987 17.9858 68.6348 17.7524C68.9703 17.5183 69.3968 17.4023 69.912 17.4023H71.2607V18.4456C71.1336 18.7909 70.8908 19.0761 70.5341 19.2947Z" fill="white"/>
<path fill-rule="evenodd" clip-rule="evenodd" d="M25.9708 8.79497H25.7041V10.2339H26.2469V9.28014H28.5267V10.2339H29.0695V8.79497H28.6235V5.82007H26.8416C26.7976 6.34389 26.6985 6.86613 26.5443 7.3868C26.3901 7.90747 26.1989 8.37686 25.9708 8.79497ZM27.0493 7.55602C27.1909 7.08347 27.279 6.66813 27.3136 6.30997H28.0594V8.79497H26.5655C26.7464 8.44155 26.9077 8.02857 27.0493 7.55602ZM31.8826 7.96664C31.8826 8.39422 31.7733 8.72791 31.5546 8.96774C31.3359 9.20756 31.0315 9.32747 30.6413 9.32747C30.3974 9.32747 30.1819 9.27225 29.9946 9.16181C29.8074 9.05136 29.6634 8.8928 29.5627 8.6861C29.462 8.47941 29.4117 8.23959 29.4117 7.96664C29.4117 7.54221 29.5203 7.21088 29.7374 6.97264C29.9545 6.73439 30.2605 6.61527 30.6554 6.61527C31.033 6.61527 31.332 6.73715 31.5522 6.98092C31.7725 7.22469 31.8826 7.55326 31.8826 7.96664ZM30.6507 8.87307C30.2055 8.87307 29.9828 8.57093 29.9828 7.96664C29.9828 7.6779 30.0351 7.45623 30.1398 7.3016C30.2444 7.14698 30.4131 7.06967 30.646 7.06967C31.0897 7.06967 31.3115 7.36866 31.3115 7.96664C31.3115 8.57093 31.0913 8.87307 30.6507 8.87307ZM33.5724 9.32747C33.1775 9.32747 32.8774 9.2119 32.6721 8.98076C32.4668 8.74961 32.3641 8.41788 32.3641 7.98557C32.3641 7.54537 32.4715 7.20694 32.6862 6.97027C32.901 6.7336 33.2113 6.61527 33.6173 6.61527C33.8926 6.61527 34.1404 6.66655 34.3607 6.7691L34.1931 7.2164C33.9587 7.12489 33.7652 7.07914 33.6125 7.07914C33.161 7.07914 32.9352 7.3797 32.9352 7.98084C32.9352 8.27431 32.9915 8.4948 33.104 8.64232C33.2165 8.78984 33.3813 8.86361 33.5984 8.86361C33.8454 8.86361 34.079 8.80207 34.2993 8.679V9.16417C34.2002 9.22255 34.0944 9.26436 33.9819 9.28961C33.8694 9.31485 33.7329 9.32747 33.5724 9.32747ZM36.8741 7.09807V6.6626H34.6179V7.09807H35.4675V9.28014H36.0245V7.09807H36.8741ZM36.9803 6.6626H37.5845L38.1155 8.1465C38.1957 8.35793 38.2492 8.55673 38.276 8.7429H38.2948C38.309 8.65613 38.335 8.55081 38.3727 8.42695C38.4105 8.3031 38.6103 7.71499 38.9722 6.6626H39.5716L38.4553 9.62804C38.2524 10.1724 37.9141 10.4445 37.4405 10.4445C37.3178 10.4445 37.1982 10.4311 37.0818 10.4043V9.96411C37.1652 9.98304 37.2604 9.99251 37.3673 9.99251C37.6348 9.99251 37.8228 9.8371 37.9314 9.52627L38.0282 9.28014L36.9803 6.6626ZM42.2502 9.28014V6.6626H39.9681V9.28014H40.5227V7.1028H41.6933V9.28014H42.2502ZM43.5978 6.6626V7.7134H44.8274V6.6626H45.382V9.28014H44.8274V8.15124H43.5978V9.28014H43.0432V6.6626H43.5978ZM48.1621 8.96774C48.3808 8.72791 48.4902 8.39422 48.4902 7.96664C48.4902 7.55326 48.38 7.22469 48.1597 6.98092C47.9395 6.73715 47.6405 6.61527 47.2629 6.61527C46.868 6.61527 46.562 6.73439 46.3449 6.97264C46.1278 7.21088 46.0192 7.54221 46.0192 7.96664C46.0192 8.23959 46.0696 8.47941 46.1702 8.6861C46.2709 8.8928 46.4149 9.05136 46.6021 9.16181C46.7894 9.27225 47.0049 9.32747 47.2488 9.32747C47.639 9.32747 47.9434 9.20756 48.1621 8.96774ZM46.5903 7.96664C46.5903 8.57093 46.813 8.87307 47.2582 8.87307C47.6988 8.87307 47.919 8.57093 47.919 7.96664C47.919 7.36866 47.6972 7.06967 47.2535 7.06967C47.0206 7.06967 46.8519 7.14698 46.7473 7.3016C46.6426 7.45623 46.5903 7.6779 46.5903 7.96664ZM52.1081 7.89327C52.4684 7.82858 52.6485 7.64162 52.6485 7.33237C52.6485 6.88586 52.3071 6.6626 51.6243 6.6626H50.3829V9.28014H51.629C51.9877 9.28014 52.2611 9.21348 52.4491 9.08016C52.6371 8.94683 52.7311 8.75632 52.7311 8.5086C52.7311 8.34294 52.6776 8.20804 52.5706 8.1039C52.4636 7.99977 52.3095 7.93587 52.1081 7.9122V7.89327ZM52.1624 8.47547C52.1624 8.34925 52.1136 8.25971 52.016 8.20685C51.9185 8.154 51.7722 8.12757 51.5771 8.12757H50.9375V8.86834H51.5912C51.972 8.86834 52.1624 8.73738 52.1624 8.47547ZM51.9724 7.15369C52.0534 7.20023 52.0939 7.27557 52.0939 7.3797C52.0939 7.50593 52.0459 7.5931 51.95 7.64122C51.854 7.68934 51.7132 7.7134 51.5275 7.7134H50.9375V7.08387H51.6101C51.7706 7.08387 51.8913 7.10714 51.9724 7.15369Z" fill="white"/>
<defs>
<linearGradient id="paint0_linear" x1="15.2197" y1="10.7636" x2="20.2479" y2="16.7998" gradientUnits="userSpaceOnUse">
<stop stop-color="#FF177B"/>
<stop offset="1" stop-color="#FFEC73"/>
</linearGradient>
<linearGradient id="paint1_linear" x1="6.65627" y1="-6.56293" x2="-7.83973" y2="2.35639" gradientUnits="userSpaceOnUse">
<stop stop-color="#064AA2"/>
<stop offset="1" stop-color="#63FFD4"/>
</linearGradient>
<linearGradient id="paint2_linear" x1="18.0096" y1="7.62872" x2="6.96643" y2="13.0082" gradientUnits="userSpaceOnUse">
<stop stop-color="#FF4521"/>
<stop offset="1" stop-color="#8A33DB"/>
</linearGradient>
<linearGradient id="paint3_linear" x1="2.00306" y1="3.79013" x2="5.19872" y2="18.522" gradientUnits="userSpaceOnUse">
<stop stop-color="#00A3B5"/>
<stop offset="1" stop-color="#D6FFA1"/>
</linearGradient>
</defs>
</svg>
