<svg width="27" height="27" viewBox="0 0 27 27" fill="none" xmlns="http://www.w3.org/2000/svg">
<mask id="mask0" mask-type="alpha" maskUnits="userSpaceOnUse" x="0" y="0" width="27" height="27">
<rect x="0.84375" y="0.84375" width="25.3125" height="25.3125" fill="white"/>
</mask>
<g mask="url(#mask0)">
<path fill-rule="evenodd" clip-rule="evenodd" d="M19.6221 3.12973C20.0538 3.13374 20.48 3.31003 20.7886 3.61289C21.6576 4.47654 22.5239 5.34294 23.3876 6.21193C23.6898 6.51993 23.8666 6.93996 23.8708 7.37838C23.8863 12.3203 23.8863 17.2624 23.8708 22.2043C23.8626 23.0652 23.1234 23.8602 22.2063 23.8687C16.403 23.8869 10.5996 23.8869 4.79624 23.8687C3.93295 23.8607 3.14045 23.1214 3.13185 22.2043C3.1136 16.4009 3.1136 10.5975 3.13185 4.79408C3.14 3.92683 3.8932 3.13809 4.79619 3.12973C9.73811 3.11431 14.6801 3.11431 19.6221 3.12973ZM4.80727 3.99238C4.38447 3.99367 3.99865 4.36001 3.9945 4.79947C3.97626 10.601 3.93987 16.4027 3.99455 22.204C4.00093 22.6207 4.36 23.0019 4.80158 23.006C10.603 23.0242 16.4048 23.0595 22.2061 23.0059C22.6243 22.9995 23.004 22.6369 23.0081 22.1989C23.0236 17.2589 23.0546 12.3186 23.008 7.37867C23.0049 7.17054 22.9193 6.96641 22.7738 6.81809C21.9114 5.95049 21.0518 5.08008 20.1787 4.22311C20.0295 4.07851 19.8245 3.99431 19.6167 3.99238C14.6803 3.97701 9.74375 3.99238 4.80727 3.99238Z" fill="#FF5252"/>
<path fill-rule="evenodd" clip-rule="evenodd" d="M18.5099 3.13171C18.726 3.16187 18.8912 3.3401 18.9015 3.56123C18.9015 4.80669 18.9056 6.05214 18.9014 7.2976C18.8935 8.16638 18.1403 8.95304 17.2374 8.9616C14.7465 8.9696 12.2555 8.9696 9.76464 8.9616C8.90282 8.95344 8.10375 8.21547 8.10059 7.28756V3.56123C8.11126 3.33021 8.29918 3.14066 8.53194 3.12988H18.4701C18.4834 3.13048 18.4967 3.13112 18.5099 3.13171ZM8.96329 3.99258C8.96329 5.09422 8.95325 6.19591 8.96334 7.2975C8.97006 7.71614 9.32953 8.09474 9.77012 8.09894C12.2592 8.1069 14.7483 8.12253 17.2373 8.09889C17.6557 8.09227 18.0373 7.73003 18.0388 7.28613V3.99258C15.0136 3.99258 11.9884 3.99258 8.96329 3.99258Z" fill="#FF5252"/>
<path fill-rule="evenodd" clip-rule="evenodd" d="M19.3079 12.2398C20.1727 12.248 20.9688 12.9888 20.9719 13.9138V23.4374C20.9429 23.6206 20.8457 23.7918 20.6738 23.8476C20.6311 23.8615 20.585 23.8617 20.5406 23.8687H6.46152C6.37213 23.8546 6.28032 23.8389 6.20795 23.7864C6.09913 23.7073 6.05197 23.575 6.03017 23.4374C6.03017 20.2595 6.01939 17.0816 6.03022 13.9037C6.03837 13.0398 6.7796 12.2485 7.69422 12.2398C11.5654 12.2274 15.4367 12.2274 19.3079 12.2398ZM7.70569 13.1024C7.28442 13.1038 6.89707 13.4632 6.89287 13.9093V23.006H20.1092C20.1092 19.972 20.1378 16.9379 20.1092 13.9039C20.1025 13.4839 19.743 13.1066 19.3024 13.1024C15.4368 13.09 11.5712 13.1024 7.70569 13.1024Z" fill="#FF5252"/>
</g>
</svg>
