<svg width="21" height="23" viewBox="0 0 21 23" fill="currentColor" xmlns="http://www.w3.org/2000/svg">
<path fill-rule="evenodd" clip-rule="evenodd" d="M10.1819 0V0.266095C10.3194 0.103143 10.5229 0 10.75 0C11.1642 0 11.5 0.343248 11.5 0.766667C11.5 1.19008 11.1642 1.53333 10.75 1.53333C10.3824 1.53333 10.0766 1.26301 10.0124 0.906226H8.292C7.64003 1.53323 7.31921 2.30379 7.31921 3.24453C7.31921 5.69323 9.03996 11.4663 10.3893 12.1455C10.9489 12.4271 11.6885 12.6258 12.4791 12.7394C12.695 12.2688 13.1738 11.9415 13.7298 11.9415C14.3135 11.9415 14.8121 12.3021 15.0108 12.8105C15.9037 12.728 16.6758 12.5225 17.1121 12.1902C18.1896 11.3697 19.9822 5.53399 20.0768 3.22615C20.143 1.611 19.8262 0.906226 19.3348 0.906226H17.4876C17.4234 1.26301 17.1176 1.53333 16.75 1.53333C16.3358 1.53333 16 1.19008 16 0.766667C16 0.454276 16.1828 0.185523 16.445 0.0660595V0H16.75H19.3348C20.5371 0 21.076 1.19879 20.9914 3.2629C20.8867 5.81745 19.0255 11.8764 17.6701 12.9086C17.0886 13.3514 16.1242 13.6168 15.0379 13.7151C14.9236 14.0692 14.6667 14.3601 14.3342 14.5218L14.3332 19.0141C14.1416 21.6146 12.8474 23 10.5456 23C8.2142 23 7.12797 21.57 7.39712 18.9578V16.2958C7.18949 15.1668 6.46381 14.6353 5.08046 14.6353C3.68749 14.6353 2.83603 15.1857 2.42936 16.3312V17.4117C3.39025 17.5842 4.11895 18.4168 4.11895 19.4179C4.11895 20.544 3.19689 21.4569 2.05947 21.4569C0.922058 21.4569 0 20.544 0 19.4179C0 18.4787 0.641322 17.6879 1.51403 17.4512V16.1834L1.53709 16.1142C2.06194 14.5398 3.2772 13.729 5.08046 13.729C6.90538 13.729 8.02859 14.5688 8.30594 16.1801L8.31244 16.2562V18.9811L8.30995 19.0284C8.0847 21.1554 8.79286 22.0938 10.5456 22.0938C12.3351 22.0938 13.2616 21.102 13.4191 18.9811V14.6253C12.9228 14.5116 12.5296 14.1315 12.4013 13.6454C11.4912 13.5184 10.6352 13.2859 9.9745 12.9533C8.20743 12.0638 6.40389 6.01301 6.40389 3.24453C6.40389 1.98835 6.87621 0.934351 7.80849 0.114366L7.93852 0H10.1819ZM2.05947 20.5507C1.42758 20.5507 0.915322 20.0435 0.915322 19.4179C0.915322 18.7923 1.42758 18.2851 2.05947 18.2851C2.69137 18.2851 3.20363 18.7923 3.20363 19.4179C3.20363 20.0435 2.69137 20.5507 2.05947 20.5507Z"/>
</svg>
